# xmcd
#
# Track frame offsets:
#	150
#	12914
#	25913
#	39081
#	52470
#	64488
#	79682
#	94825
#	105579
#	116754
#	131440
#	145822
#	155977
#	165642
#	178005
#	191798
#	204686
#	220273
#	232185
#	243231
#
# Disc length: 3415 seconds
#
# Revision: 5
# Processed by: cddbd v1.5.2PL0 Copyright (c) Steve Scherf et al.
# Submitted via: EasyCDDAExtractor 12.0.1.1
#
DISCID=280d5514
DTITLE=Don Williams - The Best of Don Williams [Cassette]
DYEAR=1975
DGENRE=Country
TTITLE0=You're My Best Friend
TTITLE1=Where Do We Go Fom Here
TTITLE2=Ruby Tuesday
TTITLE3=Where Are You
TTITLE4=On Her Way To Be A Woman
TTITLE5=All I'm Missing Is You
TTITLE6=Don't You Think It's Time
TTITLE7=Turn Out The Lights (And Love Me Tonight)
TTITLE8=It Must Be Love
TTITLE9=When I'm With You
TTITLE10=My Woman's Love
TTITLE11=Take My Hand For A While
TTITLE12=Endless Sleep
TTITLE13=Some Broken Hearts Never Mend
TTITLE14=I'm Just A Country Boy
TTITLE15=I'm Getting Good At Missing You
TTITLE16=Till The Rivers All Run Dry
TTITLE17=Follow Me Back To Louisville
TTITLE18=Always Something There To Remind Me
TTITLE19=Goodbye Isn't Really Good At All
EXTD=
EXTT0=
EXTT1=
EXTT2=
EXTT3=
EXTT4=
EXTT5=
EXTT6=
EXTT7=
EXTT8=
EXTT9=
EXTT10=
EXTT11=
EXTT12=
EXTT13=
EXTT14=
EXTT15=
EXTT16=
EXTT17=
EXTT18=
EXTT19=
PLAYORDER=
